<mxfile host="app.diagrams.net" modified="2024-03-22T19:10:33.603Z" agent="Mozilla/5.0 (Windows NT 10.0; Win64; x64) AppleWebKit/537.36 (KHTML, like Gecko) Chrome/122.0.0.0 Safari/537.36 Edg/122.0.0.0" version="24.0.8" etag="HcrXu3QClknYP70_k5Kq" type="github">
  <diagram name="페이지-1" id="uAc9lK6cG9Dpixoa18Aj">
    <mxGraphModel>
      <root>
        <mxCell id="0" />
        <mxCell id="1" parent="0" />
      </root>
    </mxGraphModel>
  </diagram>
</mxfile>
